<?xml version="1.0" encoding="UTF-8"?>
<!-- Generator: https://ezgif.com/png-to-svg -->
<svg version="1.1" xmlns="http://www.w3.org/2000/svg" width="1024" height="1024">
<path d="M0 0 C8.67 0 17.33 0 26 0 C26 0.33 26 0.66 26 1 C26.7 1.06 27.41 1.13 28.13 1.2 C57.62 3.99 85.25 10.05 112 23 C112.64 23.31 113.28 23.61 113.94 23.93 C130.44 31.96 145.35 42.79 159 55 C159.86 55.75 160.71 56.49 161.59 57.26 C171.97 66.41 181.49 76.08 190 87 C190.98 88.23 191.97 89.46 192.95 90.7 C221 126.19 221 126.19 221 135 C221.66 135 222.32 135 223 135 C223.36 134.01 223.36 134.01 223.72 132.99 C229.14 120.29 237.62 108.88 246 98 C246.7 97.08 246.7 97.08 247.41 96.15 C252.68 89.27 258.08 82.61 263.95 76.23 C265.85 74.17 267.68 72.06 269.5 69.94 C289.08 47.5 314.53 29.42 342 18 C342.66 18 343.32 18 344 18 C344.33 17.34 344.66 16.68 345 16 C347.14 15.1 347.14 15.1 349.97 14.2 C351.01 13.86 352.04 13.53 353.11 13.18 C354.79 12.66 354.79 12.66 356.5 12.12 C358.2 11.59 358.2 11.59 359.94 11.04 C368.86 8.27 377.8 5.66 387 4 C387.96 3.82 388.92 3.65 389.91 3.47 C400.16 1.79 410.26 1.64 420.62 1.69 C421.96 1.69 421.96 1.69 423.31 1.69 C436.09 1.74 448.51 2.04 461 5 C461.93 5.21 462.86 5.43 463.82 5.65 C474.28 8.11 484.53 10.77 494.38 15.12 C497.38 16.13 499.86 16.16 503 16 C502.67 16.66 502.34 17.32 502 18 C502.97 18.47 503.94 18.95 504.94 19.43 C519.93 26.8 534.07 34.35 547 45 C548.04 45.84 549.09 46.68 550.13 47.52 C572.45 65.68 591.35 88.01 604 114 C604 114.66 604 115.32 604 116 C604.66 116.33 605.32 116.66 606 117 C606.73 118.76 606.73 118.76 607.41 121.02 C608.4 124.15 609.44 127.23 610.65 130.3 C616.59 145.54 621.39 161.12 621.76 177.58 C621.84 178.38 621.92 179.18 622 180 C622.66 180.33 623.32 180.66 624 181 C624.92 241.25 611.09 293.65 579 345 C578.64 345.59 578.27 346.17 577.9 346.78 C566.14 365.6 552.55 383 538.51 400.16 C537.15 401.82 535.8 403.48 534.45 405.14 C530.27 410.3 526 415.32 521.53 420.22 C519.93 421.93 519.93 421.93 519 424 C518.34 424 517.68 424 517 424 C516.74 424.59 516.47 425.17 516.2 425.78 C514.96 428.07 513.64 429.66 511.84 431.54 C511.22 432.2 510.59 432.85 509.95 433.53 C508.95 434.57 508.95 434.57 507.94 435.62 C506.57 437.07 505.19 438.51 503.82 439.96 C503.16 440.65 502.5 441.35 501.82 442.07 C499.58 444.44 497.41 446.87 495.25 449.31 C491.09 453.99 486.66 458.37 482.19 462.75 C479.97 464.8 479.97 464.8 479 467 C478.34 467 477.68 467 477 467 C477 467.66 477 468.32 477 469 C475.87 470.2 474.72 471.39 473.53 472.53 C471.9 474.1 470.32 475.71 468.74 477.33 C467.6 478.49 466.45 479.65 465.31 480.81 C464.73 481.41 464.15 482.01 463.55 482.62 C462.07 484.12 460.54 485.56 459 487 C458.34 487 457.68 487 457 487 C456.73 487.64 456.46 488.28 456.19 488.94 C455 491 455 491 452 492 C452 492.66 452 493.32 452 494 C450.64 495.34 450.64 495.34 448.69 496.94 C444.6 500.41 440.84 504.13 437.07 507.95 C433.83 511.22 430.46 514.27 426.96 517.26 C424.71 519.25 422.61 521.36 420.5 523.5 C415.92 528.13 411.09 532.38 406.12 536.59 C405.52 537.1 404.93 537.6 404.31 538.12 C403.79 538.56 403.27 539 402.74 539.45 C400.4 541.54 398.22 543.78 396 546 C393.31 548.6 390.6 551.18 387.88 553.75 C387.16 554.43 386.44 555.12 385.71 555.82 C385.02 556.48 384.33 557.13 383.62 557.8 C382.99 558.39 382.37 558.98 381.73 559.59 C380 561 380 561 377 562 C377 562.66 377 563.32 377 564 C375.78 565.23 375.78 565.23 373.94 566.75 C369.76 570.3 365.75 574 361.75 577.75 C356.07 583.08 350.35 588.36 344.59 593.6 C342.77 595.28 341.01 597.03 339.29 598.81 C337 601 337 601 335 601 C335 601.66 335 602.32 335 603 C333.67 604.34 333.67 604.34 331.75 605.94 C328.2 608.95 324.74 612.04 321.31 615.19 C320.81 615.65 320.31 616.1 319.8 616.58 C316.99 619.16 314.19 621.76 311.41 624.38 C310.52 625.2 310.52 625.2 309.62 626.05 C308.47 627.13 307.33 628.21 306.19 629.29 C302.22 633 302.22 633 300 633 C300 633.66 300 634.32 300 635 C298.78 636.23 298.78 636.23 296.94 637.75 C292.71 641.34 288.66 645.08 284.62 648.88 C280.47 652.77 276.31 656.65 272.06 660.44 C264.92 666.83 257.98 673.43 251 680 C245.68 685.01 240.35 690.02 235 695 C234.46 695.5 233.92 696.01 233.36 696.53 C231.96 697.84 230.54 699.14 229.12 700.44 C228.36 701.14 227.6 701.84 226.82 702.56 C225 704 225 704 223 704 C222.67 704.66 222.34 705.32 222 706 C221.37 705.43 220.74 704.86 220.09 704.28 C219.24 703.51 218.38 702.73 217.5 701.94 C216.66 701.18 215.83 700.43 214.97 699.65 C212.72 697.64 210.45 695.65 208.17 693.68 C203.93 689.97 199.83 686.13 195.75 682.25 C188.89 675.77 181.97 669.36 175 663 C173 661.17 171 659.33 169 657.5 C168.01 656.59 167.01 655.68 166.02 654.77 C163.96 652.88 161.91 651 159.86 649.11 C155 644.64 150.12 640.2 145.12 635.88 C141.4 632.59 137.77 629.21 134.12 625.84 C131.83 623.74 129.5 621.69 127.15 619.65 C122.87 615.92 118.74 612.04 114.62 608.12 C109.29 603.08 103.92 598.08 98.44 593.19 C93.8 589.03 89.24 584.78 84.66 580.54 C83.05 579.04 81.43 577.55 79.81 576.06 C74.57 571.23 69.35 566.4 64.16 561.53 C59.2 556.89 54.25 552.27 49.1 547.85 C45.52 544.7 42.05 541.43 38.57 538.17 C36.32 536.08 34.1 534.07 31.61 532.27 C31.08 531.85 30.55 531.43 30 531 C30 530.34 30 529.68 30 529 C29.47 528.79 28.93 528.59 28.38 528.38 C25.02 526.43 22.61 523.78 19.94 521 C15.76 516.67 15.76 516.67 11 513 C11 512.34 11 511.68 11 511 C10.41 510.73 9.81 510.47 9.2 510.19 C6.95 508.98 5.53 507.75 3.76 505.92 C3.17 505.32 2.57 504.71 1.96 504.09 C1.36 503.46 0.75 502.83 0.12 502.19 C-4.95 496.96 -4.95 496.96 -10.45 492.18 C-11.29 491.46 -12.13 490.74 -13 490 C-13 489.34 -13 488.68 -13 488 C-13.57 487.75 -14.14 487.51 -14.73 487.25 C-17.38 485.79 -19.17 484.08 -21.3 481.93 C-22.11 481.12 -22.93 480.3 -23.76 479.46 C-24.6 478.61 -25.45 477.75 -26.31 476.88 C-27.14 476.04 -27.97 475.21 -28.83 474.36 C-33.2 469.95 -37.42 465.46 -41.47 460.75 C-43.54 458.38 -45.75 456.19 -48 454 C-51.63 450.42 -55.04 446.74 -58.36 442.86 C-60 441 -61.72 439.25 -63.5 437.5 C-67.21 433.84 -70.6 429.95 -74 426 C-75 424.85 -76.01 423.69 -77.02 422.54 C-82.82 415.88 -88.57 409.19 -94.12 402.31 C-95.74 400.32 -97.39 398.38 -99.06 396.44 C-101 394 -101 394 -101 392 C-101.66 392 -102.32 392 -103 392 C-104.88 389.73 -106.64 387.44 -108.38 385.06 C-108.91 384.34 -109.44 383.62 -109.99 382.88 C-111.67 380.59 -113.34 378.3 -115 376 C-115.51 375.3 -116.02 374.6 -116.54 373.88 C-160.55 313.26 -187.63 244.26 -176.22 168.48 C-171.92 142.83 -162.16 119.09 -149.03 96.76 C-147.33 93.85 -145.67 90.92 -144 88 C-143.34 88 -142.68 88 -142 88 C-141.66 87.21 -141.66 87.21 -141.31 86.41 C-139.54 83.14 -137.3 80.29 -135 77.38 C-134.51 76.76 -134.03 76.14 -133.53 75.5 C-129.06 69.91 -124.18 64.94 -119 60 C-116.71 57.73 -114.43 55.46 -112.22 53.11 C-101.45 41.83 -88.4 33.76 -75 26 C-74.35 25.62 -73.69 25.24 -73.02 24.85 C-52.2 12.88 -28.05 4.94 -4.12 2.44 C-3.09 2.29 -2.06 2.15 -1 2 C-0.67 1.34 -0.34 0.68 0 0 Z M454.56 142.35 C452.8 144.1 451.05 145.85 449.3 147.61 C445.55 151.36 441.79 155.12 438.04 158.89 C432.61 164.33 427.18 169.76 421.75 175.2 C412.93 184.02 404.12 192.85 395.31 201.67 C394.78 202.2 394.25 202.73 393.71 203.27 C389.97 207.01 386.24 210.76 382.5 214.5 C378.22 218.79 373.93 223.08 369.65 227.37 C369.12 227.9 368.6 228.43 368.05 228.97 C359.26 237.78 350.47 246.58 341.67 255.38 C336.25 260.81 330.83 266.24 325.41 271.67 C321.27 275.82 317.13 279.97 312.98 284.11 C311.28 285.82 309.58 287.52 307.88 289.23 C305.56 291.55 303.25 293.87 300.93 296.18 C300.25 296.87 299.57 297.55 298.87 298.25 C298.25 298.87 297.63 299.49 297 300.12 C296.46 300.66 295.93 301.19 295.38 301.74 C294 303 294 303 292 304 C292 304.66 292 305.32 292 306 C291.34 306 290.68 306 290 306 C288.43 307.59 288.43 307.59 286.81 309.62 C284.52 312.33 282.25 314.75 279.5 317 C276.21 319.7 273.5 322.72 270.77 325.97 C268.62 328.43 266.32 330.71 264 333 C262.58 334.42 261.17 335.83 259.75 337.25 C250.25 346.75 250.25 346.75 248.01 348.99 C246.82 350.18 245.63 351.37 244.45 352.57 C242.2 354.84 239.91 356.98 237.44 359 C234.56 361.42 232.3 364.02 230 367 C229.34 367.33 228.68 367.66 228 368 C228 368.66 228 369.32 228 370 C227.34 370 226.68 370 226 370 C224.43 371.59 224.43 371.59 222.81 373.62 C219.89 377.09 216.84 379.98 213.29 382.77 C212.86 383.18 212.44 383.58 212 384 C212 384.66 212 385.32 212 386 C211.34 386 210.68 386 210 386 C207.49 388.31 205.26 390.66 203.19 393.38 C201.4 395.52 199.79 397.1 197.69 398.88 C193.26 402.66 189.13 406.72 185 410.81 C184.32 411.48 183.63 412.15 182.93 412.85 C181.97 413.8 181.97 413.8 181 414.77 C180.42 415.34 179.85 415.92 179.25 416.51 C177.79 417.93 177.79 417.93 178 420 C174 420 174 420 172.47 418.64 C172.01 418.04 171.54 417.44 171.06 416.81 C167.69 412.62 164.14 408.95 160 405.5 C157.15 403.13 154.6 400.64 152 398 C150.68 396.67 150.68 396.67 149.33 395.32 C148.35 394.34 147.38 393.36 146.4 392.38 C145.28 391.24 144.15 390.11 143.03 388.98 C142.43 388.38 141.83 387.78 141.22 387.17 C127.48 373.36 113.74 359.56 99.98 345.77 C92.03 337.8 84.09 329.83 76.15 321.85 C69.22 314.88 62.28 307.91 55.33 300.95 C51.66 297.28 47.99 293.59 44.32 289.9 C40.88 286.43 37.43 282.97 33.96 279.51 C32.7 278.25 31.44 276.97 30.18 275.7 C28.45 273.96 26.72 272.23 24.98 270.5 C24.49 269.99 24 269.49 23.49 268.97 C16.7 262.3 8.03 258.96 -1.44 258.75 C-11.34 258.98 -18.17 261.84 -25.69 268.31 C-32.64 276.39 -35.55 284.15 -35.3 294.88 C-34.2 306.19 -28.02 314.77 -19.53 321.98 C-14.15 326.67 -9.15 331.73 -4.11 336.79 C-3.08 337.82 -2.05 338.85 -1.02 339.88 C1.67 342.58 4.36 345.28 7.05 347.98 C9.78 350.72 12.51 353.46 15.24 356.2 C20.05 361.02 24.86 365.84 29.67 370.66 C31.34 372.34 33.02 374.01 34.7 375.69 C36.51 377.5 38.12 379.3 39.69 381.31 C40.45 382.2 41.21 383.09 42 384 C42.66 384 43.32 384 44 384 C44.5 385.49 44.5 385.49 45 387 C46.39 388.41 46.39 388.41 48.19 389.81 C54.28 394.97 59.8 400.72 65.41 406.4 C66.87 407.87 68.34 409.33 69.81 410.78 C72 413 72 413 73.81 415.38 C75.75 417.7 77.65 419.48 79.94 421.44 C83.37 424.36 86.11 427.53 89 431 C90.94 432.78 92.94 434.49 94.95 436.21 C98.12 438.98 101.05 441.99 104 445 C104.89 445.87 105.77 446.73 106.69 447.62 C109 450 109 450 110.81 452.38 C113.28 455.33 116 457.68 118.91 460.18 C123.13 463.86 127.07 467.79 130.62 472.12 C132.95 474.94 135.31 477.53 138 480 C138.66 480 139.32 480 140 480 C140.66 481.32 141.32 482.64 142 484 C142.66 484 143.32 484 144 484 C144.33 484.99 144.66 485.98 145 487 C145.66 487 146.32 487 147 487 C147.24 487.57 147.49 488.14 147.74 488.72 C152.09 496.6 160.41 503.02 168.82 506 C179.29 509 188.37 508.2 198 503 C203.84 499.05 208.46 494.52 213.04 489.21 C216.56 485.24 220.35 481.54 224.12 477.81 C224.91 477.03 225.7 476.25 226.5 475.45 C227.97 473.99 229.43 472.54 230.89 471.09 C232.39 469.6 233.89 468.11 235.39 466.61 C237.71 464.29 240.04 461.98 242.38 459.67 C244.61 457.47 246.83 455.26 249.06 453.05 C250.23 451.89 251.41 450.72 252.59 449.56 C254.3 447.87 256.01 446.18 257.71 444.49 C258.24 443.97 258.77 443.45 259.32 442.91 C260.58 441.64 261.8 440.33 263 439 C263 438.34 263 437.68 263 437 C263.87 436.62 263.87 436.62 264.76 436.23 C267.23 434.87 268.85 433.38 270.81 431.38 C271.75 430.43 271.75 430.43 272.71 429.46 C274.5 427.53 276.21 425.58 277.92 423.57 C284 416.59 290.74 410.21 297.32 403.7 C299.1 401.94 300.88 400.17 302.66 398.41 C303.19 397.88 303.72 397.36 304.27 396.82 C307.08 394.03 309.75 391.17 312.33 388.16 C316.34 383.54 320.64 379.27 325 374.98 C326.71 373.28 328.41 371.58 330.12 369.89 C332.8 367.24 335.47 364.59 338.15 361.95 C340.75 359.38 343.34 356.8 345.93 354.23 C346.74 353.43 347.55 352.63 348.39 351.82 C349.12 351.08 349.86 350.35 350.62 349.59 C351.28 348.94 351.93 348.3 352.6 347.63 C354.22 346.1 354.22 346.1 354 344 C354.56 343.79 355.11 343.59 355.69 343.38 C358.27 341.84 359.74 339.97 361.59 337.63 C363.07 335.92 364.63 334.56 366.38 333.12 C368.92 331.02 371.09 328.84 373.22 326.32 C377 321.94 381.02 317.87 385.12 313.81 C385.81 313.13 386.5 312.44 387.21 311.74 C388.55 310.41 389.88 309.09 391.21 307.77 C393.48 305.52 395.74 303.26 398 301 C400.58 298.42 403.15 295.86 405.81 293.38 C408.34 291.17 408.34 291.17 408 288 C408.56 287.96 409.11 287.92 409.69 287.88 C412.51 286.81 413.77 285.14 415.56 282.77 C418.32 279.38 421.55 276.44 424.68 273.39 C425.55 272.54 426.42 271.69 427.31 270.81 C428.64 269.52 428.64 269.52 429.99 268.21 C432.22 266.25 432.22 266.25 432 264 C432.6 263.73 433.2 263.45 433.81 263.17 C435.94 262.03 437.33 260.93 439.02 259.23 C439.58 258.68 440.14 258.13 440.72 257.56 C441.31 256.96 441.91 256.36 442.52 255.75 C443.44 254.83 443.44 254.83 444.38 253.89 C445.68 252.59 446.97 251.3 448.26 250 C450.25 248 452.25 246.02 454.24 244.03 C455.5 242.77 456.76 241.51 458.02 240.25 C458.62 239.65 459.22 239.06 459.83 238.44 C462.95 235.73 462.95 235.73 464 232 C464.58 231.75 465.15 231.5 465.75 231.25 C468.33 229.82 470.06 228.22 472 226 C472 225.34 472 224.68 472 224 C472.56 223.79 473.11 223.59 473.69 223.38 C476.27 221.84 477.74 219.97 479.59 217.63 C481.07 215.92 482.63 214.56 484.38 213.12 C486.99 210.96 489.19 208.71 491.38 206.12 C494.68 202.21 498.36 198.95 502.28 195.66 C502.85 195.11 503.41 194.57 504 194 C504 193.34 504 192.68 504 192 C504.62 191.75 505.24 191.5 505.88 191.25 C508.35 189.79 508.95 188.62 510 186 C510.66 186 511.32 186 512 186 C512 185.34 512 184.68 512 184 C512.66 184 513.32 184 514 184 C515.3 182.67 515.3 182.67 516.62 180.94 C518.89 178.17 521.21 175.93 524 173.69 C532.19 166.67 535.36 158.02 536.31 147.56 C535.38 136.94 530.83 128.03 523.16 120.67 C495.13 98.97 474.07 122.77 454.56 142.35 Z " fill="#EC2F21" transform="translate(288,160)"/>
<path d="M0 0 C3.3 0 6.6 0 10 0 C10 0.33 10 0.66 10 1 C6.7 1 3.4 1 0 1 C0 0.67 0 0.34 0 0 Z " fill="#EC4332" transform="translate(704,160)"/>
<path d="M0 0 C2.31 0 4.62 0 7 0 C7 0.33 7 0.66 7 1 C4.69 1 2.38 1 0 1 C0 0.67 0 0.34 0 0 Z " fill="#EE4333" transform="translate(696,160)"/>
<path d="M0 0 C2.31 0 4.62 0 7 0 C7 0.33 7 0.66 7 1 C4.69 1 2.38 1 0 1 C0 0.67 0 0.34 0 0 Z " fill="#EC4534" transform="translate(315,160)"/>
<path d="M0 0 C1.32 0 2.64 0 4 0 C3.67 0.66 3.34 1.32 3 2 C2.01 1.34 1.02 0.68 0 0 Z " fill="#F13C2D" transform="translate(284,420)"/>
<path d="M0 0 C1 4 1 4 1 4 Z " fill="#E94536" transform="translate(911,333)"/>
<path d="M0 0 C0.99 0.33 1.98 0.66 3 1 C2.01 1.33 1.02 1.66 0 2 C0 1.34 0 0.68 0 0 Z " fill="#ED4432" transform="translate(628,176)"/>
<path d="M0 0 C0.66 0.66 1.32 1.32 2 2 C1.34 2 0.68 2 0 2 C0 1.34 0 0.68 0 0 Z " fill="#EA3F2F" transform="translate(468,829)"/>
<path d="" fill="#ED4233" transform="translate(0,0)"/>
<path d="M0 0 C3 1 3 1 3 1 Z " fill="#ED4534" transform="translate(691,160)"/>
<path d="M0 0 C2 1 2 1 2 1 Z " fill="#EC4031" transform="translate(192,565)"/>
<path d="" fill="#EC4031" transform="translate(0,0)"/>
<path d="M0 0 C2 1 2 1 2 1 Z " fill="#EE4433" transform="translate(129,467)"/>
<path d="" fill="#F23B2B" transform="translate(0,0)"/>
<path d="" fill="#EE4133" transform="translate(0,0)"/>
<path d="M0 0 C2 1 2 1 2 1 Z " fill="#F13F2E" transform="translate(296,422)"/>
<path d="M0 0 C2 1 2 1 2 1 Z " fill="#F33B2C" transform="translate(289,420)"/>
<path d="" fill="#ED4433" transform="translate(0,0)"/>
<path d="" fill="#F03D2D" transform="translate(0,0)"/>
<path d="" fill="#EA4534" transform="translate(0,0)"/>
<path d="" fill="#EB4334" transform="translate(0,0)"/>
<path d="M0 0 C2 1 2 1 2 1 Z " fill="#EB4432" transform="translate(822,194)"/>
<path d="M0 0 C2 1 2 1 2 1 Z " fill="#EC4131" transform="translate(611,185)"/>
<path d="M0 0 C2 1 2 1 2 1 Z " fill="#ED4431" transform="translate(623,179)"/>
<path d="M0 0 C2 1 2 1 2 1 Z " fill="#EC4835" transform="translate(240,171)"/>
<path d="M0 0 C2 1 2 1 2 1 Z " fill="#EA4433" transform="translate(765,168)"/>
<path d="M0 0 C2 1 2 1 2 1 Z " fill="#EF4534" transform="translate(343,163)"/>
<path d="M0 0 C2 1 2 1 2 1 Z " fill="#ED4332" transform="translate(684,161)"/>
<path d="M0 0 C2 1 2 1 2 1 Z " fill="#ED4633" transform="translate(720,160)"/>
<path d="M0 0 C2 1 2 1 2 1 Z " fill="#EC4433" transform="translate(717,160)"/>
<path d="" fill="#BEA497" transform="translate(0,0)"/>
<path d="" fill="#9B9690" transform="translate(0,0)"/>
<path d="" fill="#EB4333" transform="translate(0,0)"/>
<path d="" fill="#EA4633" transform="translate(0,0)"/>
<path d="" fill="#E93F30" transform="translate(0,0)"/>
<path d="" fill="#EB4231" transform="translate(0,0)"/>
<path d="" fill="#E93F2E" transform="translate(0,0)"/>
<path d="" fill="#ED3F2E" transform="translate(0,0)"/>
<path d="" fill="#E83E2E" transform="translate(0,0)"/>
<path d="" fill="#EC4130" transform="translate(0,0)"/>
<path d="" fill="#EF412F" transform="translate(0,0)"/>
<path d="" fill="#EB3F31" transform="translate(0,0)"/>
<path d="" fill="#EA4130" transform="translate(0,0)"/>
<path d="" fill="#EE3F31" transform="translate(0,0)"/>
<path d="" fill="#EB3F2F" transform="translate(0,0)"/>
<path d="" fill="#EA3D2D" transform="translate(0,0)"/>
<path d="" fill="#EC4230" transform="translate(0,0)"/>
<path d="" fill="#EA4231" transform="translate(0,0)"/>
<path d="" fill="#EA4032" transform="translate(0,0)"/>
<path d="" fill="#E84333" transform="translate(0,0)"/>
<path d="" fill="#EB4031" transform="translate(0,0)"/>
<path d="" fill="#EA3D2D" transform="translate(0,0)"/>
<path d="" fill="#ED4230" transform="translate(0,0)"/>
<path d="" fill="#EA4231" transform="translate(0,0)"/>
<path d="" fill="#EC4131" transform="translate(0,0)"/>
<path d="" fill="#EF3B29" transform="translate(0,0)"/>
<path d="" fill="#ED4332" transform="translate(0,0)"/>
<path d="" fill="#EA4232" transform="translate(0,0)"/>
<path d="" fill="#ED4031" transform="translate(0,0)"/>
<path d="" fill="#F03C2B" transform="translate(0,0)"/>
<path d="" fill="#EA4232" transform="translate(0,0)"/>
<path d="" fill="#EB4632" transform="translate(0,0)"/>
<path d="" fill="#EA4131" transform="translate(0,0)"/>
<path d="" fill="#EE3D2B" transform="translate(0,0)"/>
<path d="" fill="#EE4432" transform="translate(0,0)"/>
<path d="" fill="#EB3F2E" transform="translate(0,0)"/>
<path d="" fill="#EC4433" transform="translate(0,0)"/>
<path d="" fill="#EE4232" transform="translate(0,0)"/>
<path d="" fill="#F23F2F" transform="translate(0,0)"/>
<path d="" fill="#EE3B2B" transform="translate(0,0)"/>
<path d="" fill="#EB4132" transform="translate(0,0)"/>
<path d="" fill="#EB4130" transform="translate(0,0)"/>
<path d="" fill="#ED3C2B" transform="translate(0,0)"/>
<path d="" fill="#E5402F" transform="translate(0,0)"/>
<path d="" fill="#ED3C2C" transform="translate(0,0)"/>
<path d="" fill="#F33C2C" transform="translate(0,0)"/>
<path d="" fill="#EE4030" transform="translate(0,0)"/>
<path d="" fill="#ED3C2A" transform="translate(0,0)"/>
<path d="" fill="#EC4230" transform="translate(0,0)"/>
<path d="" fill="#ED4030" transform="translate(0,0)"/>
<path d="" fill="#F33E2C" transform="translate(0,0)"/>
<path d="" fill="#F33E2D" transform="translate(0,0)"/>
<path d="" fill="#EC4535" transform="translate(0,0)"/>
<path d="" fill="#F43B2C" transform="translate(0,0)"/>
<path d="" fill="#EF3F31" transform="translate(0,0)"/>
<path d="" fill="#ED3A29" transform="translate(0,0)"/>
<path d="" fill="#EC3D2D" transform="translate(0,0)"/>
<path d="" fill="#EA4130" transform="translate(0,0)"/>
<path d="" fill="#F43C2C" transform="translate(0,0)"/>
<path d="" fill="#EE3B2B" transform="translate(0,0)"/>
<path d="" fill="#E34130" transform="translate(0,0)"/>
<path d="" fill="#ED402E" transform="translate(0,0)"/>
<path d="" fill="#EF3D2C" transform="translate(0,0)"/>
<path d="" fill="#F33C2D" transform="translate(0,0)"/>
<path d="" fill="#ED3E30" transform="translate(0,0)"/>
<path d="" fill="#EE3B2A" transform="translate(0,0)"/>
<path d="" fill="#EE4230" transform="translate(0,0)"/>
<path d="" fill="#F13F30" transform="translate(0,0)"/>
<path d="" fill="#F23C2B" transform="translate(0,0)"/>
<path d="" fill="#ED3E2F" transform="translate(0,0)"/>
<path d="" fill="#EE3E2E" transform="translate(0,0)"/>
<path d="" fill="#F23C2C" transform="translate(0,0)"/>
<path d="" fill="#F13C2D" transform="translate(0,0)"/>
<path d="" fill="#ED4030" transform="translate(0,0)"/>
<path d="" fill="#EF3A2B" transform="translate(0,0)"/>
<path d="" fill="#F0412E" transform="translate(0,0)"/>
<path d="" fill="#E84033" transform="translate(0,0)"/>
<path d="" fill="#ED4031" transform="translate(0,0)"/>
<path d="" fill="#ED402E" transform="translate(0,0)"/>
<path d="" fill="#EF3F32" transform="translate(0,0)"/>
<path d="" fill="#EE402E" transform="translate(0,0)"/>
<path d="" fill="#EE412E" transform="translate(0,0)"/>
<path d="" fill="#ED3B2B" transform="translate(0,0)"/>
<path d="" fill="#EB4334" transform="translate(0,0)"/>
<path d="" fill="#EE4231" transform="translate(0,0)"/>
<path d="" fill="#F33D2E" transform="translate(0,0)"/>
<path d="" fill="#EB4131" transform="translate(0,0)"/>
<path d="" fill="#EA4233" transform="translate(0,0)"/>
<path d="" fill="#E94132" transform="translate(0,0)"/>
<path d="" fill="#F23B2B" transform="translate(0,0)"/>
<path d="" fill="#EC4334" transform="translate(0,0)"/>
<path d="" fill="#F04232" transform="translate(0,0)"/>
<path d="" fill="#F3392A" transform="translate(0,0)"/>
<path d="" fill="#F13D2C" transform="translate(0,0)"/>
<path d="" fill="#EE3B2A" transform="translate(0,0)"/>
<path d="" fill="#EC4233" transform="translate(0,0)"/>
<path d="" fill="#F13C2C" transform="translate(0,0)"/>
<path d="" fill="#EB4131" transform="translate(0,0)"/>
<path d="" fill="#EB3F31" transform="translate(0,0)"/>
<path d="" fill="#F0402D" transform="translate(0,0)"/>
<path d="" fill="#ED4635" transform="translate(0,0)"/>
<path d="" fill="#F43A2B" transform="translate(0,0)"/>
<path d="" fill="#EC4634" transform="translate(0,0)"/>
<path d="" fill="#ED4235" transform="translate(0,0)"/>
<path d="" fill="#EF3D2C" transform="translate(0,0)"/>
<path d="" fill="#EF4130" transform="translate(0,0)"/>
<path d="" fill="#EE4535" transform="translate(0,0)"/>
<path d="" fill="#EE4333" transform="translate(0,0)"/>
<path d="" fill="#F33A2C" transform="translate(0,0)"/>
<path d="" fill="#EE4434" transform="translate(0,0)"/>
<path d="" fill="#ED402F" transform="translate(0,0)"/>
<path d="" fill="#F23C2C" transform="translate(0,0)"/>
<path d="" fill="#ED4533" transform="translate(0,0)"/>
<path d="" fill="#EC4334" transform="translate(0,0)"/>
<path d="" fill="#F23D2B" transform="translate(0,0)"/>
<path d="" fill="#EF4130" transform="translate(0,0)"/>
<path d="" fill="#F43B2B" transform="translate(0,0)"/>
<path d="" fill="#F04332" transform="translate(0,0)"/>
<path d="" fill="#EF3F2D" transform="translate(0,0)"/>
<path d="" fill="#F33B2A" transform="translate(0,0)"/>
<path d="" fill="#ED3F2D" transform="translate(0,0)"/>
<path d="" fill="#ED4735" transform="translate(0,0)"/>
<path d="" fill="#F43B2B" transform="translate(0,0)"/>
<path d="" fill="#F53B2C" transform="translate(0,0)"/>
<path d="" fill="#F5392C" transform="translate(0,0)"/>
<path d="" fill="#EC412E" transform="translate(0,0)"/>
<path d="" fill="#F33E2D" transform="translate(0,0)"/>
<path d="" fill="#F33B2B" transform="translate(0,0)"/>
<path d="" fill="#ED3C2C" transform="translate(0,0)"/>
<path d="" fill="#F33D2E" transform="translate(0,0)"/>
<path d="" fill="#F13F2E" transform="translate(0,0)"/>
<path d="" fill="#F33C2C" transform="translate(0,0)"/>
<path d="" fill="#EE4735" transform="translate(0,0)"/>
<path d="" fill="#EB4435" transform="translate(0,0)"/>
<path d="" fill="#F33C2E" transform="translate(0,0)"/>
<path d="" fill="#F03D2A" transform="translate(0,0)"/>
<path d="" fill="#EE3D2D" transform="translate(0,0)"/>
<path d="" fill="#F03C2C" transform="translate(0,0)"/>
<path d="" fill="#EE3E2C" transform="translate(0,0)"/>
<path d="" fill="#EA4635" transform="translate(0,0)"/>
<path d="" fill="#EF412C" transform="translate(0,0)"/>
<path d="" fill="#EC4736" transform="translate(0,0)"/>
<path d="" fill="#EE3D2B" transform="translate(0,0)"/>
<path d="" fill="#F0402D" transform="translate(0,0)"/>
<path d="" fill="#EF402C" transform="translate(0,0)"/>
<path d="" fill="#ED4837" transform="translate(0,0)"/>
<path d="" fill="#EF4937" transform="translate(0,0)"/>
<path d="" fill="#F23C2C" transform="translate(0,0)"/>
<path d="" fill="#F13E2D" transform="translate(0,0)"/>
<path d="" fill="#EE432F" transform="translate(0,0)"/>
<path d="" fill="#F33D2D" transform="translate(0,0)"/>
<path d="" fill="#F03F2D" transform="translate(0,0)"/>
<path d="" fill="#EF422D" transform="translate(0,0)"/>
<path d="" fill="#EF3B2B" transform="translate(0,0)"/>
<path d="" fill="#F13C2D" transform="translate(0,0)"/>
<path d="" fill="#F0402C" transform="translate(0,0)"/>
<path d="" fill="#F23C2D" transform="translate(0,0)"/>
<path d="" fill="#F1402C" transform="translate(0,0)"/>
<path d="" fill="#F23E2C" transform="translate(0,0)"/>
<path d="" fill="#EB4435" transform="translate(0,0)"/>
<path d="" fill="#F03C2C" transform="translate(0,0)"/>
<path d="" fill="#EF3F2D" transform="translate(0,0)"/>
<path d="" fill="#F03F2C" transform="translate(0,0)"/>
<path d="" fill="#EE4838" transform="translate(0,0)"/>
<path d="" fill="#F1402E" transform="translate(0,0)"/>
<path d="" fill="#F1402F" transform="translate(0,0)"/>
<path d="" fill="#EA4535" transform="translate(0,0)"/>
<path d="" fill="#F13C2E" transform="translate(0,0)"/>
<path d="" fill="#EE3F2E" transform="translate(0,0)"/>
<path d="" fill="#EC4636" transform="translate(0,0)"/>
<path d="" fill="#F43D2C" transform="translate(0,0)"/>
<path d="" fill="#F03B2B" transform="translate(0,0)"/>
<path d="" fill="#ED3F30" transform="translate(0,0)"/>
<path d="" fill="#EE3D2D" transform="translate(0,0)"/>
<path d="" fill="#F0402C" transform="translate(0,0)"/>
<path d="" fill="#F23C2C" transform="translate(0,0)"/>
<path d="" fill="#EB3F2D" transform="translate(0,0)"/>
<path d="" fill="#EF422F" transform="translate(0,0)"/>
<path d="" fill="#EB4434" transform="translate(0,0)"/>
<path d="" fill="#EF3D2C" transform="translate(0,0)"/>
<path d="" fill="#EC4736" transform="translate(0,0)"/>
<path d="" fill="#ED4937" transform="translate(0,0)"/>
<path d="" fill="#EE4837" transform="translate(0,0)"/>
<path d="" fill="#F14131" transform="translate(0,0)"/>
<path d="" fill="#EC4A37" transform="translate(0,0)"/>
<path d="" fill="#EB4335" transform="translate(0,0)"/>
<path d="" fill="#F13F2C" transform="translate(0,0)"/>
<path d="" fill="#EC4131" transform="translate(0,0)"/>
<path d="" fill="#EA4537" transform="translate(0,0)"/>
<path d="" fill="#EB3F30" transform="translate(0,0)"/>
<path d="" fill="#EC4536" transform="translate(0,0)"/>
<path d="" fill="#ED402F" transform="translate(0,0)"/>
<path d="" fill="#EF4B39" transform="translate(0,0)"/>
<path d="" fill="#F03F2F" transform="translate(0,0)"/>
<path d="" fill="#EF4232" transform="translate(0,0)"/>
<path d="" fill="#EF3E2E" transform="translate(0,0)"/>
<path d="" fill="#ED4432" transform="translate(0,0)"/>
<path d="" fill="#ED4836" transform="translate(0,0)"/>
<path d="" fill="#EE4537" transform="translate(0,0)"/>
<path d="" fill="#ED4737" transform="translate(0,0)"/>
<path d="" fill="#ED4736" transform="translate(0,0)"/>
<path d="" fill="#EE4736" transform="translate(0,0)"/>
<path d="" fill="#ED3E31" transform="translate(0,0)"/>
<path d="" fill="#ED4333" transform="translate(0,0)"/>
<path d="" fill="#EC4735" transform="translate(0,0)"/>
<path d="" fill="#EE4535" transform="translate(0,0)"/>
<path d="" fill="#EF402E" transform="translate(0,0)"/>
<path d="" fill="#EB402F" transform="translate(0,0)"/>
<path d="" fill="#EE4030" transform="translate(0,0)"/>
<path d="" fill="#EB4535" transform="translate(0,0)"/>
<path d="" fill="#EC4435" transform="translate(0,0)"/>
<path d="" fill="#E94133" transform="translate(0,0)"/>
<path d="" fill="#ED4335" transform="translate(0,0)"/>
<path d="" fill="#EF4737" transform="translate(0,0)"/>
<path d="" fill="#ED402F" transform="translate(0,0)"/>
<path d="" fill="#EF4331" transform="translate(0,0)"/>
<path d="" fill="#EF4232" transform="translate(0,0)"/>
<path d="" fill="#E94131" transform="translate(0,0)"/>
<path d="" fill="#ED4332" transform="translate(0,0)"/>
<path d="" fill="#EE4031" transform="translate(0,0)"/>
<path d="" fill="#ED4432" transform="translate(0,0)"/>
<path d="" fill="#EE4131" transform="translate(0,0)"/>
<path d="" fill="#ED4533" transform="translate(0,0)"/>
<path d="" fill="#EC4332" transform="translate(0,0)"/>
<path d="" fill="#EB4433" transform="translate(0,0)"/>
<path d="" fill="#EB4634" transform="translate(0,0)"/>
<path d="" fill="#ED4131" transform="translate(0,0)"/>
<path d="" fill="#EC4133" transform="translate(0,0)"/>
<path d="" fill="#E94535" transform="translate(0,0)"/>
<path d="" fill="#ED4433" transform="translate(0,0)"/>
<path d="" fill="#EB4331" transform="translate(0,0)"/>
<path d="" fill="#ED4532" transform="translate(0,0)"/>
<path d="" fill="#EE4535" transform="translate(0,0)"/>
<path d="" fill="#E84232" transform="translate(0,0)"/>
<path d="" fill="#ED4535" transform="translate(0,0)"/>
<path d="" fill="#EE4332" transform="translate(0,0)"/>
<path d="" fill="#EA4435" transform="translate(0,0)"/>
<path d="" fill="#EB4435" transform="translate(0,0)"/>
<path d="" fill="#EE4435" transform="translate(0,0)"/>
<path d="" fill="#EE4532" transform="translate(0,0)"/>
<path d="" fill="#ED4632" transform="translate(0,0)"/>
<path d="" fill="#EE4734" transform="translate(0,0)"/>
<path d="" fill="#EB4131" transform="translate(0,0)"/>
<path d="" fill="#ED4433" transform="translate(0,0)"/>
<path d="" fill="#ED4432" transform="translate(0,0)"/>
<path d="" fill="#EA4333" transform="translate(0,0)"/>
<path d="" fill="#EE4735" transform="translate(0,0)"/>
<path d="" fill="#EF4835" transform="translate(0,0)"/>
<path d="" fill="#EC4433" transform="translate(0,0)"/>
<path d="" fill="#EE4434" transform="translate(0,0)"/>
<path d="" fill="#EA4735" transform="translate(0,0)"/>
<path d="" fill="#EB4937" transform="translate(0,0)"/>
<path d="" fill="#EB4330" transform="translate(0,0)"/>
<path d="" fill="#EC4837" transform="translate(0,0)"/>
<path d="" fill="#EC4734" transform="translate(0,0)"/>
<path d="" fill="#EC4535" transform="translate(0,0)"/>
<path d="" fill="#F04533" transform="translate(0,0)"/>
<path d="" fill="#ED4433" transform="translate(0,0)"/>
<path d="" fill="#EE4233" transform="translate(0,0)"/>
<path d="" fill="#EC4536" transform="translate(0,0)"/>
<path d="" fill="#EE4736" transform="translate(0,0)"/>
</svg>
